<svg width="72" height="72" viewBox="0 0 72 72" fill="none" xmlns="http://www.w3.org/2000/svg">
<path d="M72 15.8049C72 22.6037 67.7071 28.3998 61.6841 30.6306C58.5685 21.023 50.977 13.4316 41.3694 10.3159C43.6002 4.29289 49.3963 0 56.1951 0C64.9239 0 72 7.07609 72 15.8049Z" fill="white" fill-opacity="0.5"/>
<path d="M31.1698 33.3919L26.7878 41.6508C26.5586 42.0829 26.9953 42.5668 27.4316 42.364L31.4024 40.5187C31.5331 40.4579 31.6829 40.4579 31.8136 40.5187L35.7844 42.364C36.2207 42.5668 36.6574 42.0829 36.4281 41.6508L32.0462 33.3919C31.857 33.0354 31.359 33.0354 31.1698 33.3919Z" fill="white" fill-opacity="0.5"/>
<path fill-rule="evenodd" clip-rule="evenodd" d="M31.6098 8.78049C35.0156 8.78049 38.2957 9.31915 41.3694 10.3159C40.7362 12.0257 40.3902 13.8749 40.3902 15.8049C40.3902 24.5337 47.4663 31.6098 56.1951 31.6098C58.1251 31.6098 59.9743 31.2638 61.6841 30.6306C62.6809 33.7043 63.2195 36.9844 63.2195 40.3902C63.2195 57.8478 49.0673 72 31.6098 72C14.1522 72 0 57.8478 0 40.3902C0 22.9327 14.1522 8.78049 31.6098 8.78049ZM30.7333 22.4858L15.053 52.0392C14.5945 52.9034 15.468 53.8711 16.3405 53.4656L31.1985 46.5606C31.4599 46.4392 31.7595 46.4392 32.0209 46.5606L46.8788 53.4656C47.7514 53.8711 48.6249 52.9034 48.1664 52.0392L32.486 22.4858C32.1077 21.7728 31.1117 21.7728 30.7333 22.4858Z" fill="white" fill-opacity="0.5"/>
</svg>
