<svg width="16" height="16" viewBox="0 0 16 16" fill="none" xmlns="http://www.w3.org/2000/svg">
<path fill-rule="evenodd" clip-rule="evenodd" d="M13.7078 6.80681C15.0461 6.31098 15.9999 5.02301 15.9999 3.51227C15.9999 1.5725 14.4274 0 12.4877 0C10.9768 0 9.68875 0.953966 9.193 2.29241C8.51006 2.07099 7.78128 1.95133 7.02454 1.95133C3.145 1.95133 0 5.09632 0 8.97587C0 12.8554 3.145 16.0004 7.02454 16.0004C10.9041 16.0004 14.0491 12.8554 14.0491 8.97587C14.0491 8.21892 13.9294 7.48993 13.7078 6.80681ZM12.4877 7.02454C12.9167 7.02454 13.3277 6.94762 13.7078 6.80681C13.0153 4.67171 11.3282 2.98469 9.193 2.29241C9.05226 2.67239 8.97538 3.08335 8.97538 3.51227C8.97538 5.45205 10.5479 7.02454 12.4877 7.02454Z" fill="#00A8FF"/>
<path fill-rule="evenodd" clip-rule="evenodd" d="M3.34614 11.5643L6.83074 4.99671C6.91481 4.83825 7.13616 4.83825 7.22023 4.99671L10.7048 11.5643C10.8067 11.7563 10.6126 11.9714 10.4187 11.8812L7.11687 10.3468C7.05878 10.3198 6.99219 10.3198 6.9341 10.3468L3.63227 11.8812C3.43836 11.9714 3.24424 11.7563 3.34614 11.5643ZM5.95394 9.25568L6.92774 7.42033C6.96977 7.3411 7.08044 7.3411 7.12248 7.42033L8.09628 9.25568C8.14723 9.35171 8.05017 9.45923 7.95321 9.41417L7.0708 9.00409C7.04175 8.99059 7.00846 8.99059 6.97942 9.00409L6.097 9.41418C6.00005 9.45923 5.90299 9.35171 5.95394 9.25568Z" fill="white"/>
</svg>
