<svg width="41" height="37" viewBox="0 0 41 37" fill="none" xmlns="http://www.w3.org/2000/svg">
<path fill-rule="evenodd" clip-rule="evenodd" d="M0.944998 34.6864L19.4643 0.732591C19.9111 -0.0866465 21.0875 -0.0866443 21.5343 0.732594L40.0536 34.6864C40.5952 35.6793 39.5635 36.7911 38.533 36.3252L20.985 28.3921C20.6762 28.2526 20.3224 28.2526 20.0137 28.3921L2.46566 36.3252C1.43511 36.7911 0.403457 35.6793 0.944998 34.6864ZM14.8045 22.7512L19.9798 13.2626C20.2032 12.853 20.7914 12.853 21.0148 13.2626L26.1902 22.7512C26.461 23.2477 25.9451 23.8036 25.4299 23.5706L20.7401 21.4505C20.5858 21.3807 20.4089 21.3807 20.2545 21.4505L15.5648 23.5706C15.0495 23.8036 14.5337 23.2477 14.8045 22.7512Z" fill="white"/>
</svg>
