<svg width="81" height="80" viewBox="0 0 81 80" fill="none" xmlns="http://www.w3.org/2000/svg">
<path d="M40.5 20C39.4391 20 38.4217 20.4214 37.6716 21.1716C36.9214 21.9217 36.5 22.9391 36.5 24V40C36.5 41.0609 36.9214 42.0783 37.6716 42.8284C38.4217 43.5786 39.4391 44 40.5 44C41.5609 44 42.5783 43.5786 43.3284 42.8284C44.0786 42.0783 44.5 41.0609 44.5 40V24C44.5 22.9391 44.0786 21.9217 43.3284 21.1716C42.5783 20.4214 41.5609 20 40.5 20ZM44.18 54.48C44.0925 54.2251 43.9714 53.983 43.82 53.76L43.34 53.16C42.7775 52.605 42.0632 52.229 41.2873 52.0795C40.5113 51.93 39.7085 52.0137 38.98 52.32C38.4953 52.5226 38.0488 52.8067 37.66 53.16C37.2893 53.5337 36.996 53.977 36.7969 54.4644C36.5979 54.9517 36.497 55.4736 36.5 56C36.5063 56.5227 36.615 57.0391 36.82 57.52C36.9997 58.0164 37.2863 58.4672 37.6595 58.8404C38.0328 59.2137 38.4836 59.5003 38.98 59.68C39.4588 59.8916 39.9765 60.0009 40.5 60.0009C41.0235 60.0009 41.5412 59.8916 42.02 59.68C42.5164 59.5003 42.9672 59.2137 43.3405 58.8404C43.7137 58.4672 44.0004 58.0164 44.18 57.52C44.385 57.0391 44.4937 56.5227 44.5 56C44.5196 55.7337 44.5196 55.4663 44.5 55.2C44.4311 54.9449 44.3232 54.702 44.18 54.48ZM40.5 0C32.5888 0 24.8552 2.34596 18.2772 6.74121C11.6992 11.1365 6.57234 17.3836 3.54484 24.6927C0.517331 32.0017 -0.274802 40.0444 1.26861 47.8036C2.81202 55.5628 6.62164 62.6902 12.2157 68.2842C17.8098 73.8783 24.9372 77.688 32.6964 79.2314C40.4556 80.7748 48.4983 79.9827 55.8073 76.9552C63.1164 73.9277 69.3635 68.8008 73.7588 62.2228C78.154 55.6448 80.5 47.9112 80.5 40C80.5 34.7471 79.4654 29.5457 77.4552 24.6927C75.445 19.8396 72.4986 15.4301 68.7843 11.7157C65.0699 8.00138 60.6604 5.05501 55.8073 3.04482C50.9543 1.03463 45.7529 0 40.5 0ZM40.5 72C34.171 72 27.9841 70.1232 22.7218 66.607C17.4594 63.0908 13.3579 58.0931 10.9359 52.2459C8.51387 46.3986 7.88016 39.9645 9.11489 33.7571C10.3496 27.5497 13.3973 21.8479 17.8726 17.3726C22.3479 12.8973 28.0497 9.8496 34.2571 8.61487C40.4645 7.38014 46.8986 8.01385 52.7459 10.4359C58.5931 12.8579 63.5908 16.9594 67.107 22.2217C70.6232 27.4841 72.5 33.671 72.5 40C72.5 48.4869 69.1286 56.6262 63.1274 62.6274C57.1263 68.6286 48.9869 72 40.5 72Z" fill="#000000"/>
</svg>
