<svg width="25" height="24" viewBox="0 0 25 24" fill="none" xmlns="http://www.w3.org/2000/svg">
<path d="M1.48059 7.80206C2.13023 7.80206 2.47344 7.43434 2.47344 6.79695V3.9042C2.47344 2.62943 3.1476 1.97979 4.37334 1.97979H7.33963C7.98927 1.97979 8.34474 1.62433 8.34474 0.98694C8.34474 0.349555 7.98927 0.00634766 7.33963 0.00634766H4.34883C1.78703 0.00634766 0.5 1.26886 0.5 3.79389V6.79695C0.5 7.43434 0.855465 7.80206 1.48059 7.80206ZM23.5072 7.80206C24.1568 7.80206 24.5 7.43434 24.5 6.79695V3.79389C24.5 1.26886 23.213 0.00634766 20.6512 0.00634766H17.6481C17.0107 0.00634766 16.6553 0.349555 16.6553 0.98694C16.6553 1.62433 17.0107 1.97979 17.6481 1.97979H20.6144C21.8279 1.97979 22.5266 2.62943 22.5266 3.9042V6.79695C22.5266 7.43434 22.882 7.80206 23.5072 7.80206ZM11.5194 14.0656H11.6175C12.8555 14.0656 13.5296 13.3914 13.5296 12.1534V8.29235C13.5296 7.81432 13.2109 7.50788 12.7451 7.50788C12.2549 7.50788 11.9362 7.81432 11.9362 8.29235V12.2638C11.9362 12.3863 11.8626 12.4476 11.7523 12.4476H11.3233C10.882 12.4476 10.5388 12.7908 10.5388 13.2321C10.5388 13.7592 10.8943 14.0656 11.5194 14.0656ZM7.82993 11.1728C8.40603 11.1728 8.82278 10.7684 8.82278 10.18V8.51299C8.82278 7.92463 8.40603 7.52014 7.82993 7.52014C7.25383 7.52014 6.84934 7.92463 6.84934 8.51299V10.18C6.84934 10.7684 7.25383 11.1728 7.82993 11.1728ZM17.1333 11.1728C17.6971 11.1728 18.1016 10.7684 18.1016 10.18V8.51299C18.1016 7.92463 17.6971 7.52014 17.1333 7.52014C16.5449 7.52014 16.1405 7.92463 16.1405 8.51299V10.18C16.1405 10.7684 16.5449 11.1728 17.1333 11.1728ZM12.4265 18.1841C13.9096 18.1841 15.405 17.5467 16.4714 16.4803C16.6185 16.3455 16.692 16.1371 16.692 15.8919C16.692 15.4262 16.3488 15.0952 15.8953 15.0952C15.6624 15.0952 15.4908 15.181 15.2579 15.4262C14.5838 16.1248 13.5174 16.6029 12.4265 16.6029C11.3968 16.6029 10.3182 16.1494 9.60725 15.4262C9.41113 15.2423 9.25179 15.0952 8.95761 15.0952C8.50409 15.0952 8.16088 15.4262 8.16088 15.8919C8.16088 16.1003 8.23442 16.2964 8.39377 16.468C9.38662 17.5957 10.9433 18.1841 12.4265 18.1841ZM4.34883 23.9941H7.33963C7.98927 23.9941 8.34474 23.6386 8.34474 23.0135C8.34474 22.3761 7.98927 22.0206 7.33963 22.0206H4.37334C3.1476 22.0206 2.47344 21.371 2.47344 20.0962V17.2035C2.47344 16.5538 2.11798 16.1984 1.48059 16.1984C0.843207 16.1984 0.5 16.5538 0.5 17.2035V20.1943C0.5 22.7316 1.78703 23.9941 4.34883 23.9941ZM17.6481 23.9941H20.6512C23.213 23.9941 24.5 22.7193 24.5 20.1943V17.2035C24.5 16.5538 24.1445 16.1984 23.5072 16.1984C22.8698 16.1984 22.5266 16.5538 22.5266 17.2035V20.0962C22.5266 21.371 21.8279 22.0206 20.6144 22.0206H17.6481C17.0107 22.0206 16.6553 22.3761 16.6553 23.0135C16.6553 23.6386 17.0107 23.9941 17.6481 23.9941Z" fill="black" fill-opacity="0.96"/>
</svg>
