<svg width="18" height="21" viewBox="0 0 18 21" fill="none" xmlns="http://www.w3.org/2000/svg">
<path d="M15 5.99979H14.65C14.8782 5.53256 14.9979 5.01978 15 4.49979C15.003 3.80312 14.7975 3.12148 14.4098 2.54262C14.0221 1.96376 13.4701 1.51418 12.8247 1.25173C12.1794 0.989287 11.4703 0.925996 10.7886 1.07001C10.107 1.21402 9.48405 1.55874 9 2.05979C8.51595 1.55874 7.89302 1.21402 7.21138 1.07001C6.52975 0.925996 5.82061 0.989287 5.17525 1.25173C4.5299 1.51418 3.97786 1.96376 3.59019 2.54262C3.20252 3.12148 2.99697 3.80312 3 4.49979C3.00213 5.01978 3.12178 5.53256 3.35 5.99979H3C2.20435 5.99979 1.44129 6.31586 0.87868 6.87847C0.316071 7.44108 0 8.20414 0 8.99979V10.9998C0 11.265 0.105357 11.5194 0.292893 11.7069C0.48043 11.8944 0.734784 11.9998 1 11.9998H2V17.9998C2 18.7954 2.31607 19.5585 2.87868 20.1211C3.44129 20.6837 4.20435 20.9998 5 20.9998H13C13.7956 20.9998 14.5587 20.6837 15.1213 20.1211C15.6839 19.5585 16 18.7954 16 17.9998V11.9998H17C17.2652 11.9998 17.5196 11.8944 17.7071 11.7069C17.8946 11.5194 18 11.265 18 10.9998V8.99979C18 8.20414 17.6839 7.44108 17.1213 6.87847C16.5587 6.31586 15.7956 5.99979 15 5.99979ZM8 18.9998H5C4.73478 18.9998 4.48043 18.8944 4.29289 18.7069C4.10536 18.5194 4 18.265 4 17.9998V11.9998H8V18.9998ZM8 9.99979H2V8.99979C2 8.73458 2.10536 8.48022 2.29289 8.29269C2.48043 8.10515 2.73478 7.99979 3 7.99979H8V9.99979ZM8 5.99979H6.5C6.20333 5.99979 5.91332 5.91182 5.66665 5.747C5.41997 5.58218 5.22771 5.34791 5.11418 5.07382C5.00065 4.79973 4.97094 4.49813 5.02882 4.20716C5.0867 3.91619 5.22956 3.64891 5.43934 3.43913C5.64912 3.22935 5.91639 3.08649 6.20736 3.02862C6.49834 2.97074 6.79994 3.00044 7.07403 3.11397C7.34811 3.22751 7.58238 3.41976 7.7472 3.66644C7.91203 3.91311 8 4.20312 8 4.49979V5.99979ZM10 4.49979C10 4.20312 10.088 3.91311 10.2528 3.66644C10.4176 3.41976 10.6519 3.22751 10.926 3.11397C11.2001 3.00044 11.5017 2.97074 11.7926 3.02862C12.0836 3.08649 12.3509 3.22935 12.5607 3.43913C12.7704 3.64891 12.9133 3.91619 12.9712 4.20716C13.0291 4.49813 12.9994 4.79973 12.8858 5.07382C12.7723 5.34791 12.58 5.58218 12.3334 5.747C12.0867 5.91182 11.7967 5.99979 11.5 5.99979H10V4.49979ZM14 17.9998C14 18.265 13.8946 18.5194 13.7071 18.7069C13.5196 18.8944 13.2652 18.9998 13 18.9998H10V11.9998H14V17.9998ZM16 9.99979H10V7.99979H15C15.2652 7.99979 15.5196 8.10515 15.7071 8.29269C15.8946 8.48022 16 8.73458 16 8.99979V9.99979Z" fill="black"/>
</svg>
