<svg width="46" height="54" viewBox="0 0 46 54" fill="none" xmlns="http://www.w3.org/2000/svg">
<path d="M2.83464 27.0002C2.12739 27.0002 1.44911 27.2811 0.949018 27.7812C0.448921 28.2813 0.167969 28.9596 0.167969 29.6668V51.0002C0.167969 51.7074 0.448921 52.3857 0.949018 52.8858C1.44911 53.3859 2.12739 53.6668 2.83464 53.6668C3.54188 53.6668 4.22016 53.3859 4.72025 52.8858C5.22035 52.3857 5.5013 51.7074 5.5013 51.0002V29.6668C5.5013 28.9596 5.22035 28.2813 4.72025 27.7812C4.22016 27.2811 3.54188 27.0002 2.83464 27.0002ZM16.168 0.333496C15.4607 0.333496 14.7824 0.614448 14.2824 1.11454C13.7823 1.61464 13.5013 2.29292 13.5013 3.00016V51.0002C13.5013 51.7074 13.7823 52.3857 14.2824 52.8858C14.7824 53.3859 15.4607 53.6668 16.168 53.6668C16.8752 53.6668 17.5535 53.3859 18.0536 52.8858C18.5537 52.3857 18.8346 51.7074 18.8346 51.0002V3.00016C18.8346 2.29292 18.5537 1.61464 18.0536 1.11454C17.5535 0.614448 16.8752 0.333496 16.168 0.333496ZM42.8346 37.6668C42.1274 37.6668 41.4491 37.9478 40.949 38.4479C40.4489 38.948 40.168 39.6263 40.168 40.3335V51.0002C40.168 51.7074 40.4489 52.3857 40.949 52.8858C41.4491 53.3859 42.1274 53.6668 42.8346 53.6668C43.5419 53.6668 44.2202 53.3859 44.7203 52.8858C45.2203 52.3857 45.5013 51.7074 45.5013 51.0002V40.3335C45.5013 39.6263 45.2203 38.948 44.7203 38.4479C44.2202 37.9478 43.5419 37.6668 42.8346 37.6668ZM29.5013 16.3335C28.7941 16.3335 28.1158 16.6144 27.6157 17.1145C27.1156 17.6146 26.8346 18.2929 26.8346 19.0002V51.0002C26.8346 51.7074 27.1156 52.3857 27.6157 52.8858C28.1158 53.3859 28.7941 53.6668 29.5013 53.6668C30.2085 53.6668 30.8868 53.3859 31.3869 52.8858C31.887 52.3857 32.168 51.7074 32.168 51.0002V19.0002C32.168 18.2929 31.887 17.6146 31.3869 17.1145C30.8868 16.6144 30.2085 16.3335 29.5013 16.3335Z" fill="black"/>
</svg>
