<svg width="47" height="46" viewBox="0 0 47 46" fill="none" xmlns="http://www.w3.org/2000/svg">
<path d="M30.3008 23.5866C31.7237 22.3549 32.8649 20.8316 33.6471 19.12C34.4293 17.4083 34.8341 15.5485 34.8341 13.6666C34.8341 10.1304 33.4294 6.73898 30.9289 4.23849C28.4284 1.73801 25.037 0.333252 21.5008 0.333252C17.9646 0.333252 14.5732 1.73801 12.0727 4.23849C9.57221 6.73898 8.16745 10.1304 8.16745 13.6666C8.18391 15.5588 8.6095 17.4251 9.41501 19.1374C10.2205 20.8497 11.3869 22.3674 12.8341 23.5866C9.10115 25.2769 5.93402 28.0067 3.71139 31.4494C1.48877 34.8921 0.304706 38.9021 0.300781 42.9999C0.300781 43.7072 0.581733 44.3854 1.08183 44.8855C1.58193 45.3856 2.2602 45.6666 2.96745 45.6666C3.67469 45.6666 4.35297 45.3856 4.85307 44.8855C5.35316 44.3854 5.63412 43.7072 5.63412 42.9999C5.63412 38.7565 7.31982 34.6868 10.3204 31.6862C13.321 28.6856 17.3907 26.9999 21.6341 26.9999C25.8776 26.9999 29.9472 28.6856 32.9478 31.6862C35.9484 34.6868 37.6341 38.7565 37.6341 42.9999C37.6341 43.7072 37.9151 44.3854 38.4152 44.8855C38.9153 45.3856 39.5935 45.6666 40.3008 45.6666C41.008 45.6666 41.6863 45.3856 42.1864 44.8855C42.6865 44.3854 42.9674 43.7072 42.9674 42.9999C42.952 38.8874 41.7481 34.867 39.5009 31.4228C37.2536 27.9785 34.0587 25.2573 30.3008 23.5866V23.5866ZM21.5008 21.6666C19.9185 21.6666 18.3718 21.1974 17.0562 20.3183C15.7406 19.4393 14.7152 18.1899 14.1097 16.7281C13.5042 15.2662 13.3458 13.6577 13.6545 12.1059C13.9632 10.554 14.7251 9.12855 15.8439 8.00973C16.9627 6.89091 18.3882 6.12899 19.9401 5.8203C21.4919 5.51162 23.1004 5.67005 24.5622 6.27555C26.0241 6.88105 27.2735 7.90643 28.1525 9.22202C29.0316 10.5376 29.5008 12.0843 29.5008 13.6666C29.5008 15.7883 28.6579 17.8232 27.1576 19.3234C25.6573 20.8237 23.6225 21.6666 21.5008 21.6666ZM44.1675 8.33325C43.4602 8.33325 42.7819 8.6142 42.2818 9.1143C41.7817 9.6144 41.5008 10.2927 41.5008 10.9999V16.3333C41.5008 17.0405 41.7817 17.7188 42.2818 18.2189C42.7819 18.719 43.4602 18.9999 44.1675 18.9999C44.8747 18.9999 45.553 18.719 46.0531 18.2189C46.5532 17.7188 46.8341 17.0405 46.8341 16.3333V10.9999C46.8341 10.2927 46.5532 9.6144 46.0531 9.1143C45.553 8.6142 44.8747 8.33325 44.1675 8.33325ZM42.1674 22.4399C41.6802 22.9509 41.4039 23.6272 41.3941 24.3333C41.3921 24.6842 41.4594 25.0321 41.5921 25.357C41.7248 25.6819 41.9203 25.9774 42.1674 26.2266C42.4267 26.4621 42.7243 26.6515 43.0475 26.7866C43.3667 26.9277 43.7118 27.0005 44.0608 27.0005C44.4098 27.0005 44.7549 26.9277 45.0741 26.7866C45.405 26.6668 45.7056 26.4757 45.9544 26.2269C46.2033 25.978 46.3944 25.6775 46.5141 25.3466C46.6634 25.0301 46.7365 24.6831 46.7274 24.3333C46.7305 23.8036 46.5758 23.285 46.283 22.8436C45.9902 22.4022 45.5726 22.058 45.0834 21.8549C44.5942 21.6518 44.0556 21.599 43.5363 21.7032C43.017 21.8074 42.5404 22.0638 42.1674 22.4399Z" fill="black"/>
</svg>
