<svg width="54" height="54" viewBox="0 0 54 54" fill="none" xmlns="http://www.w3.org/2000/svg">
<path d="M36.8933 28.8935C39.5077 26.8366 41.416 24.016 42.3526 20.824C43.2893 17.6321 43.2078 14.2275 42.1194 11.0841C41.0311 7.94062 38.99 5.21455 36.2802 3.28512C33.5704 1.35569 30.3265 0.318848 27 0.318848C23.6735 0.318848 20.4296 1.35569 17.7198 3.28512C15.01 5.21455 12.9689 7.94062 11.8806 11.0841C10.7922 14.2275 10.7107 17.6321 11.6474 20.824C12.584 24.016 14.4923 26.8366 17.1067 28.8935C12.6269 30.6883 8.71809 33.6651 5.79704 37.5066C2.87599 41.3481 1.05216 45.9103 0.519991 50.7068C0.48147 51.057 0.512302 51.4114 0.610726 51.7497C0.709149 52.0879 0.873237 52.4035 1.09362 52.6784C1.53871 53.2335 2.18608 53.589 2.89332 53.6668C3.60057 53.7446 4.30975 53.5383 4.86486 53.0932C5.41997 52.6481 5.77553 52.0007 5.85332 51.2935C6.43888 46.0807 8.92449 41.2663 12.8352 37.7703C16.746 34.2742 21.8077 32.3416 27.0533 32.3416C32.2989 32.3416 37.3607 34.2742 41.2714 37.7703C45.1822 41.2663 47.6678 46.0807 48.2533 51.2935C48.3258 51.9487 48.6385 52.5539 49.1309 52.9922C49.6234 53.4305 50.2607 53.6708 50.92 53.6668H51.2133C51.9124 53.5864 52.5513 53.2329 52.9908 52.6835C53.4304 52.134 53.635 51.4331 53.56 50.7335C53.0253 45.9234 51.1917 41.3495 48.2556 37.502C45.3195 33.6546 41.3918 30.6788 36.8933 28.8935ZM27 27.0002C24.8903 27.0002 22.828 26.3746 21.0739 25.2025C19.3198 24.0304 17.9526 22.3645 17.1453 20.4155C16.3379 18.4664 16.1267 16.3217 16.5383 14.2525C16.9499 12.1834 17.9658 10.2828 19.4575 8.79103C20.9493 7.29927 22.8499 6.28337 24.919 5.87179C26.9882 5.46022 29.1329 5.67145 31.082 6.47879C33.031 7.28612 34.6969 8.6533 35.869 10.4074C37.0411 12.1615 37.6667 14.2238 37.6667 16.3335C37.6667 19.1625 36.5429 21.8756 34.5425 23.876C32.5421 25.8764 29.829 27.0002 27 27.0002Z" fill="black"/>
</svg>
