<svg width="16" height="20" viewBox="0 0 16 20" fill="none" xmlns="http://www.w3.org/2000/svg">
<path d="M15.63 1.64982C15.5138 1.55584 15.3781 1.48909 15.2327 1.45448C15.0873 1.41987 14.9361 1.41828 14.79 1.44982C13.7214 1.67376 12.6183 1.67662 11.5486 1.4582C10.4789 1.23979 9.46525 0.804734 8.57001 0.17982C8.40261 0.0636929 8.20374 0.00146484 8.00001 0.00146484C7.79627 0.00146484 7.5974 0.0636929 7.43001 0.17982C6.53476 0.804734 5.52108 1.23979 4.45137 1.4582C3.38166 1.67662 2.27857 1.67376 1.21001 1.44982C1.06394 1.41828 0.912671 1.41987 0.767306 1.45448C0.621942 1.48909 0.486181 1.55584 0.370006 1.64982C0.253985 1.74394 0.160527 1.86286 0.0964981 1.99784C0.0324695 2.13282 -0.00050219 2.28043 5.78149e-06 2.42982V9.87982C-0.000883255 11.3136 0.340779 12.7268 0.996541 14.0018C1.6523 15.2768 2.60319 16.3767 3.77001 17.2098L7.42001 19.8098C7.58937 19.9304 7.7921 19.9952 8.00001 19.9952C8.20791 19.9952 8.41064 19.9304 8.58001 19.8098L12.23 17.2098C13.3968 16.3767 14.3477 15.2768 15.0035 14.0018C15.6592 12.7268 16.0009 11.3136 16 9.87982V2.42982C16.0005 2.28043 15.9675 2.13282 15.9035 1.99784C15.8395 1.86286 15.746 1.74394 15.63 1.64982ZM14 9.87982C14.0008 10.9946 13.7353 12.0934 13.2257 13.0848C12.716 14.0763 11.977 14.9317 11.07 15.5798L8.00001 17.7698L4.93001 15.5798C4.02304 14.9317 3.28399 14.0763 2.77435 13.0848C2.26472 12.0934 1.99924 10.9946 2.00001 9.87982V3.57982C4.09643 3.75925 6.19605 3.27284 8.00001 2.18982C9.80397 3.27284 11.9036 3.75925 14 3.57982V9.87982Z" fill="black"/>
</svg>
