<svg width="21" height="22" viewBox="0 0 21 22" fill="none" xmlns="http://www.w3.org/2000/svg">
<path d="M14.2105 11.7101C15.1909 10.9388 15.9065 9.88105 16.2577 8.68407C16.609 7.48709 16.5784 6.21039 16.1703 5.03159C15.7621 3.85279 14.9967 2.83052 13.9806 2.10698C12.9644 1.38344 11.7479 0.994629 10.5005 0.994629C9.25303 0.994629 8.0366 1.38344 7.02041 2.10698C6.00423 2.83052 5.23883 3.85279 4.8307 5.03159C4.42257 6.21039 4.392 7.48709 4.74325 8.68407C5.09449 9.88105 5.81009 10.9388 6.79048 11.7101C5.11056 12.3832 3.64477 13.4995 2.54938 14.94C1.45398 16.3806 0.770048 18.0914 0.570485 19.8901C0.55604 20.0214 0.567602 20.1543 0.60451 20.2812C0.641419 20.408 0.702952 20.5264 0.785596 20.6294C0.952504 20.8376 1.19527 20.971 1.46049 21.0001C1.7257 21.0293 1.99164 20.9519 2.19981 20.785C2.40798 20.6181 2.54131 20.3753 2.57049 20.1101C2.79007 18.1553 3.72217 16.3499 5.1887 15.0389C6.65524 13.7279 8.55338 13.0032 10.5205 13.0032C12.4876 13.0032 14.3857 13.7279 15.8523 15.0389C17.3188 16.3499 18.2509 18.1553 18.4705 20.1101C18.4977 20.3558 18.6149 20.5828 18.7996 20.7471C18.9843 20.9115 19.2233 21.0016 19.4705 21.0001H19.5805C19.8426 20.97 20.0822 20.8374 20.247 20.6314C20.4119 20.4253 20.4886 20.1625 20.4605 19.9001C20.26 18.0963 19.5724 16.3811 18.4713 14.9383C17.3703 13.4955 15.8974 12.3796 14.2105 11.7101ZM10.5005 11.0001C9.70936 11.0001 8.936 10.7655 8.2782 10.326C7.62041 9.88648 7.10772 9.26176 6.80497 8.53086C6.50222 7.79995 6.423 6.99569 6.57734 6.21976C6.73168 5.44384 7.11265 4.73111 7.67206 4.1717C8.23147 3.61229 8.9442 3.23132 9.72012 3.07698C10.496 2.92264 11.3003 3.00186 12.0312 3.30461C12.7621 3.60736 13.3868 4.12005 13.8264 4.77784C14.2659 5.43564 14.5005 6.209 14.5005 7.00012C14.5005 8.06099 14.0791 9.07841 13.3289 9.82855C12.5788 10.5787 11.5614 11.0001 10.5005 11.0001Z" fill="#00A8FF"/>
</svg>
