<svg width="21" height="20" viewBox="0 0 21 20" fill="none" xmlns="http://www.w3.org/2000/svg">
<path d="M6.49987 9C6.30208 9 6.10875 9.05865 5.9443 9.16853C5.77985 9.27841 5.65167 9.43459 5.57599 9.61732C5.5003 9.80004 5.4805 10.0011 5.51908 10.1951C5.55767 10.3891 5.65291 10.5673 5.79276 10.7071C5.93261 10.847 6.11079 10.9422 6.30478 10.9808C6.49876 11.0194 6.69982 10.9996 6.88255 10.9239C7.06528 10.8482 7.22145 10.72 7.33134 10.5556C7.44122 10.3911 7.49987 10.1978 7.49987 10C7.49987 9.73478 7.39451 9.48043 7.20697 9.29289C7.01944 9.10536 6.76508 9 6.49987 9ZM10.4999 9C10.3021 9 10.1087 9.05865 9.9443 9.16853C9.77985 9.27841 9.65167 9.43459 9.57599 9.61732C9.5003 9.80004 9.4805 10.0011 9.51908 10.1951C9.55767 10.3891 9.65291 10.5673 9.79276 10.7071C9.93261 10.847 10.1108 10.9422 10.3048 10.9808C10.4988 11.0194 10.6998 10.9996 10.8826 10.9239C11.0653 10.8482 11.2215 10.72 11.3313 10.5556C11.4412 10.3911 11.4999 10.1978 11.4999 10C11.4999 9.73478 11.3945 9.48043 11.207 9.29289C11.0194 9.10536 10.7651 9 10.4999 9ZM14.4999 9C14.3021 9 14.1087 9.05865 13.9443 9.16853C13.7798 9.27841 13.6517 9.43459 13.576 9.61732C13.5003 9.80004 13.4805 10.0011 13.5191 10.1951C13.5577 10.3891 13.6529 10.5673 13.7928 10.7071C13.9326 10.847 14.1108 10.9422 14.3048 10.9808C14.4988 11.0194 14.6998 10.9996 14.8825 10.9239C15.0653 10.8482 15.2215 10.72 15.3313 10.5556C15.4412 10.3911 15.4999 10.1978 15.4999 10C15.4999 9.73478 15.3945 9.48043 15.207 9.29289C15.0194 9.10536 14.7651 9 14.4999 9ZM10.4999 0C9.18665 0 7.88629 0.258658 6.67303 0.761205C5.45978 1.26375 4.35738 2.00035 3.4288 2.92893C1.55343 4.8043 0.499866 7.34784 0.499866 10C0.491124 12.3091 1.29066 14.5485 2.75987 16.33L0.759866 18.33C0.621108 18.4706 0.527112 18.6492 0.489738 18.8432C0.452364 19.0372 0.473287 19.2379 0.549866 19.42C0.632924 19.5999 0.76757 19.7511 0.936713 19.8544C1.10586 19.9577 1.30187 20.0083 1.49987 20H10.4999C13.152 20 15.6956 18.9464 17.5709 17.0711C19.4463 15.1957 20.4999 12.6522 20.4999 10C20.4999 7.34784 19.4463 4.8043 17.5709 2.92893C15.6956 1.05357 13.152 0 10.4999 0ZM10.4999 18H3.90987L4.83987 17.07C5.02612 16.8826 5.13066 16.6292 5.13066 16.365C5.13066 16.1008 5.02612 15.8474 4.83987 15.66C3.53045 14.352 2.71504 12.6305 2.53256 10.7888C2.35007 8.94705 2.81181 7.09901 3.83909 5.55952C4.86638 4.02004 6.39566 2.88436 8.16638 2.34597C9.93711 1.80759 11.8397 1.8998 13.5501 2.60691C15.2604 3.31402 16.6727 4.59227 17.5463 6.22389C18.4199 7.85551 18.7007 9.73954 18.341 11.555C17.9813 13.3705 17.0032 15.005 15.5734 16.1802C14.1436 17.3554 12.3506 17.9985 10.4999 18Z" fill="#00A8FF"/>
</svg>
