<svg width="81" height="80" viewBox="0 0 81 80" fill="none" xmlns="http://www.w3.org/2000/svg">
<path d="M51.38 27.16L34.22 44.36L27.62 37.76C27.2614 37.3413 26.8202 37.0012 26.3239 36.7611C25.8276 36.521 25.2871 36.3861 24.7362 36.3648C24.1854 36.3435 23.636 36.4363 23.1227 36.6374C22.6094 36.8385 22.1432 37.1436 21.7534 37.5334C21.3636 37.9232 21.0586 38.3894 20.8575 38.9027C20.6564 39.416 20.5635 39.9653 20.5848 40.5162C20.6061 41.0671 20.741 41.6076 20.9811 42.1039C21.2212 42.6001 21.5613 43.0414 21.98 43.4L31.38 52.84C31.7538 53.2107 32.197 53.504 32.6844 53.7031C33.1717 53.9021 33.6936 54.003 34.22 54C35.2694 53.9956 36.275 53.579 37.02 52.84L57.02 32.84C57.3949 32.4681 57.6925 32.0257 57.8956 31.5383C58.0987 31.0509 58.2032 30.528 58.2032 30C58.2032 29.4719 58.0987 28.9491 57.8956 28.4617C57.6925 27.9742 57.3949 27.5318 57.02 27.16C56.2706 26.415 55.2568 25.9968 54.2 25.9968C53.1433 25.9968 52.1295 26.415 51.38 27.16ZM40.5 0C32.5888 0 24.8552 2.34596 18.2772 6.74121C11.6992 11.1365 6.57234 17.3836 3.54484 24.6927C0.517331 32.0017 -0.274802 40.0444 1.26861 47.8036C2.81202 55.5628 6.62165 62.6902 12.2157 68.2842C17.8098 73.8783 24.9372 77.688 32.6964 79.2314C40.4556 80.7748 48.4983 79.9827 55.8073 76.9552C63.1164 73.9277 69.3635 68.8008 73.7588 62.2228C78.154 55.6448 80.5 47.9112 80.5 40C80.5 34.7471 79.4654 29.5457 77.4552 24.6927C75.445 19.8396 72.4986 15.4301 68.7843 11.7157C65.0699 8.00138 60.6604 5.05501 55.8073 3.04482C50.9543 1.03463 45.7529 0 40.5 0ZM40.5 72C34.171 72 27.9841 70.1232 22.7218 66.607C17.4594 63.0908 13.3579 58.0931 10.9359 52.2459C8.51387 46.3986 7.88016 39.9645 9.11489 33.7571C10.3496 27.5497 13.3973 21.8479 17.8726 17.3726C22.3479 12.8973 28.0497 9.8496 34.2571 8.61487C40.4645 7.38014 46.8986 8.01385 52.7459 10.4359C58.5931 12.8579 63.5908 16.9594 67.107 22.2217C70.6232 27.4841 72.5 33.671 72.5 40C72.5 48.4869 69.1286 56.6262 63.1274 62.6274C57.1263 68.6286 48.9869 72 40.5 72Z" fill="#81C827"/>
</svg>
