<svg width="21" height="20" viewBox="0 0 21 20" fill="none" xmlns="http://www.w3.org/2000/svg">
<path d="M6.50084 9C6.30306 9 6.10972 9.05865 5.94527 9.16853C5.78082 9.27841 5.65265 9.43459 5.57696 9.61732C5.50128 9.80004 5.48147 10.0011 5.52006 10.1951C5.55864 10.3891 5.65388 10.5673 5.79374 10.7071C5.93359 10.847 6.11177 10.9422 6.30575 10.9808C6.49973 11.0194 6.7008 10.9996 6.88353 10.9239C7.06625 10.8482 7.22243 10.72 7.33231 10.5556C7.44219 10.3911 7.50084 10.1978 7.50084 10C7.50084 9.73478 7.39549 9.48043 7.20795 9.29289C7.02041 9.10536 6.76606 9 6.50084 9ZM10.5008 9C10.3031 9 10.1097 9.05865 9.94527 9.16853C9.78082 9.27841 9.65265 9.43459 9.57696 9.61732C9.50128 9.80004 9.48147 10.0011 9.52006 10.1951C9.55864 10.3891 9.65388 10.5673 9.79374 10.7071C9.93359 10.847 10.1118 10.9422 10.3058 10.9808C10.4997 11.0194 10.7008 10.9996 10.8835 10.9239C11.0663 10.8482 11.2224 10.72 11.3323 10.5556C11.4422 10.3911 11.5008 10.1978 11.5008 10C11.5008 9.73478 11.3955 9.48043 11.2079 9.29289C11.0204 9.10536 10.7661 9 10.5008 9ZM14.5008 9C14.3031 9 14.1097 9.05865 13.9453 9.16853C13.7808 9.27841 13.6527 9.43459 13.577 9.61732C13.5013 9.80004 13.4815 10.0011 13.5201 10.1951C13.5586 10.3891 13.6539 10.5673 13.7937 10.7071C13.9336 10.847 14.1118 10.9422 14.3058 10.9808C14.4997 11.0194 14.7008 10.9996 14.8835 10.9239C15.0663 10.8482 15.2224 10.72 15.3323 10.5556C15.4422 10.3911 15.5008 10.1978 15.5008 10C15.5008 9.73478 15.3955 9.48043 15.208 9.29289C15.0204 9.10536 14.7661 9 14.5008 9ZM10.5008 0C9.18762 0 7.88726 0.258658 6.67401 0.761205C5.46075 1.26375 4.35836 2.00035 3.42977 2.92893C1.55441 4.8043 0.500843 7.34784 0.500843 10C0.4921 12.3091 1.29164 14.5485 2.76084 16.33L0.760843 18.33C0.622085 18.4706 0.528089 18.6492 0.490715 18.8432C0.45334 19.0372 0.474263 19.2379 0.550843 19.42C0.6339 19.5999 0.768547 19.7511 0.937689 19.8544C1.10683 19.9577 1.30284 20.0083 1.50084 20H10.5008C13.153 20 15.6965 18.9464 17.5719 17.0711C19.4473 15.1957 20.5008 12.6522 20.5008 10C20.5008 7.34784 19.4473 4.8043 17.5719 2.92893C15.6965 1.05357 13.153 0 10.5008 0ZM10.5008 18H3.91084L4.84084 17.07C5.02709 16.8826 5.13164 16.6292 5.13164 16.365C5.13164 16.1008 5.02709 15.8474 4.84084 15.66C3.53143 14.352 2.71602 12.6305 2.53353 10.7888C2.35105 8.94705 2.81279 7.09901 3.84007 5.55952C4.86735 4.02004 6.39663 2.88436 8.16736 2.34597C9.93808 1.80759 11.8407 1.8998 13.5511 2.60691C15.2614 3.31402 16.6737 4.59227 17.5473 6.22389C18.4209 7.85551 18.7017 9.73954 18.342 11.555C17.9822 13.3705 17.0042 15.005 15.5744 16.1802C14.1446 17.3554 12.3516 17.9985 10.5008 18Z" fill="black" fill-opacity="0.33"/>
</svg>
